<svg width="147" height="54" viewBox="0 0 147 54" fill="none" xmlns="http://www.w3.org/2000/svg">
<path d="M128.744 12.6017C132.574 12.6017 134.926 9.78052 134.926 7.75776C134.926 6.57616 134.041 5.71973 132.821 5.71973C132.04 5.71973 131.486 6.19756 130.952 6.65859C130.338 7.18833 129.76 7.68906 128.744 7.68906C127.79 7.68906 127.222 7.2036 126.622 6.6876C126.067 6.21282 125.493 5.71973 124.667 5.71973C123.468 5.71973 122.563 6.6128 122.563 7.79439C122.562 9.97287 125.321 12.6017 128.744 12.6017Z" fill="#2D4652"/>
<path d="M50.4886 18.7598C52.0473 18.7598 53.3101 17.4499 53.3101 15.8333C53.3101 14.2166 52.0473 12.9067 50.4886 12.9067H37.4216C35.8629 12.9067 34.6001 14.2166 34.6001 15.8333V33.7023C34.6001 35.319 35.8629 36.6288 37.4216 36.6288H50.4886C52.0473 36.6288 53.3101 35.319 53.3101 33.7023C53.3101 32.0856 52.0473 30.7758 50.4886 30.7758H40.2431V27.6935H46.9209C48.4795 27.6935 49.7424 26.3837 49.7424 24.767C49.7424 23.1503 48.4795 21.8405 46.9209 21.8405H40.2431V18.7582H50.4886V18.7598Z" fill="#2D4652"/>
<path d="M88.7072 12.9067C87.1485 12.9067 85.8857 14.2166 85.8857 15.8333V21.8573C85.8342 21.8542 85.7856 21.842 85.7341 21.842H77.4741V15.8333C77.4741 14.2166 76.2113 12.9067 74.6526 12.9067C73.0939 12.9067 71.8311 14.2166 71.8311 15.8333V33.7023C71.8311 35.319 73.0939 36.6288 74.6526 36.6288C76.2113 36.6288 77.4741 35.319 77.4741 33.7023V27.6935H85.7341C85.7856 27.6935 85.8356 27.6798 85.8857 27.6783V33.7023C85.8857 35.319 87.1485 36.6288 88.7072 36.6288C90.2659 36.6288 91.5287 35.319 91.5287 33.7023V15.8333C91.5302 14.2166 90.2659 12.9067 88.7072 12.9067Z" fill="#2D4652"/>
<path d="M27.9646 12.9067C27.9381 12.9067 27.9145 12.9144 27.888 12.9144C27.8615 12.9144 27.838 12.9067 27.8115 12.9067H17.123C15.7233 12.9067 14.5694 13.9677 14.3486 15.3539C14.3147 15.4898 14.2809 15.6256 14.2676 15.7707L12.8915 30.2506C12.8311 30.4201 12.7693 31.1773 11.689 30.9406C10.1862 30.6109 8.99992 31.0078 8.63785 32.5848C8.20954 34.4503 9.21922 36.067 10.666 36.3861C11.2562 36.5158 11.8023 36.5647 12.3027 36.554C13.6244 36.525 14.6282 36.0823 15.3053 35.638C16.1163 35.1068 16.7065 34.432 17.1304 33.771C17.7662 32.7787 18.118 31.62 18.2313 30.4338L19.3514 18.7613H25.1401V33.7038C25.1401 35.3205 26.403 36.6303 27.9616 36.6303C29.5203 36.6303 30.7831 35.3205 30.7831 33.7038V15.8333C30.7876 14.2166 29.5233 12.9067 27.9646 12.9067Z" fill="#2D4652"/>
<path d="M112.469 12.9067C111.471 12.9067 110.6 13.4472 110.098 14.2578C110.051 14.3112 109.998 14.3555 109.954 14.412L101.234 25.5379V15.8348C101.234 14.2181 99.9715 12.9083 98.4128 12.9083C96.8542 12.9083 95.5913 14.2181 95.5913 15.8348V33.7023C95.5913 35.319 96.8542 36.6288 98.4128 36.6288C99.2753 36.6288 100.036 36.2197 100.554 35.5876C100.716 35.4441 100.869 35.2808 101.009 35.1022L109.646 24.0816V33.7023C109.646 35.319 110.909 36.6288 112.467 36.6288C114.026 36.6288 115.289 35.319 115.289 33.7023V15.8333C115.29 14.2166 114.028 12.9067 112.469 12.9067Z" fill="#2D4652"/>
<path d="M135.635 12.9067C134.637 12.9067 133.766 13.4472 133.264 14.2578C133.217 14.3112 133.164 14.3555 133.12 14.412L124.401 25.5379V15.8348C124.401 14.2181 123.138 12.9083 121.579 12.9083C120.021 12.9083 118.758 14.2181 118.758 15.8348V33.7023C118.758 35.319 120.021 36.6288 121.579 36.6288C122.442 36.6288 123.203 36.2197 123.721 35.5876C123.883 35.4441 124.036 35.2808 124.176 35.1022L132.812 24.0816V33.7023C132.812 35.319 134.075 36.6288 135.634 36.6288C137.193 36.6288 138.455 35.319 138.455 33.7023V15.8333C138.457 14.2166 137.194 12.9067 135.635 12.9067Z" fill="#2D4652"/>
<path d="M63.6994 10.1124L63.5891 9.48647C63.542 9.27885 63.5228 9.201 63.333 9.17046C63.1357 9.13841 63.0798 9.21932 63.0003 9.3903L62.7207 9.95209C56.3241 9.08955 50.3425 11.0742 47.5254 17.5806C52.4943 18.3134 53.5467 21.1529 54.8022 22.2535C54.8081 22.2505 55.3894 21.5376 55.3968 21.5345C57.319 20.7117 59.5297 19.7636 61.711 20.1224C61.7286 20.1254 61.8081 20.1392 61.8258 20.1422C64.0085 20.501 65.9543 21.4841 67.5601 22.8871C67.566 22.8917 67.5719 22.8962 67.5763 22.9008C69.1246 21.5421 72.7218 20.1499 75.8407 20.3041C74.2628 13.8801 70.0445 11.3459 63.6994 10.1124Z" fill="#CACDD0"/>
<path d="M38.6968 48.5357C38.6321 48.5357 38.6012 48.5021 38.6012 48.4334V46.5633C38.5497 46.5633 38.5026 46.5602 38.4584 46.5541C38.4157 46.548 38.3745 46.5404 38.3348 46.5297L36.9424 48.4609C36.9159 48.5112 36.8879 48.5357 36.8556 48.5357H36.2536C36.23 48.5357 36.2183 48.5372 36.2183 48.5387C36.2183 48.5372 36.2197 48.5311 36.2241 48.5189C36.2286 48.5082 36.2374 48.4914 36.2506 48.4716H36.2477L37.8888 46.2732C37.7946 46.1633 37.7137 46.0427 37.6445 45.9114C37.5753 45.7801 37.5061 45.6366 37.4369 45.4809L37.1911 44.9832C37.1411 44.8733 37.094 44.7832 37.0469 44.7146C37.0013 44.6459 36.9557 44.5909 36.91 44.5497C36.8644 44.51 36.8158 44.481 36.7658 44.4657C36.7157 44.4504 36.6613 44.4413 36.6039 44.4398C36.5715 44.4398 36.5465 44.4291 36.5288 44.4062C36.5112 44.3833 36.5023 44.3558 36.5023 44.3253V44.0551C36.5023 43.968 36.5391 43.9253 36.6157 43.9253C36.779 43.9253 36.9174 43.9528 37.0307 44.0108C37.1455 44.0673 37.2441 44.1451 37.328 44.2428C37.4119 44.3405 37.4855 44.452 37.5503 44.5817C37.6136 44.71 37.6783 44.8458 37.7416 44.9878L37.9786 45.5069C38.0272 45.6168 38.0728 45.7069 38.1199 45.7756C38.1655 45.8442 38.2141 45.9007 38.2641 45.942C38.3142 45.9832 38.3657 46.0122 38.4216 46.0274C38.4761 46.0427 38.5364 46.0503 38.6026 46.0503V44.0291C38.6026 44.0001 38.61 43.9757 38.6277 43.9558C38.6439 43.936 38.6674 43.9268 38.6983 43.9268H39.0148C39.0442 43.9268 39.0692 43.936 39.0869 43.9558C39.1045 43.9757 39.1134 44.0001 39.1134 44.0291V46.0503C39.1796 46.0503 39.2399 46.0427 39.2944 46.0274C39.3489 46.0122 39.4019 45.9832 39.4504 45.942C39.499 45.9007 39.5476 45.8442 39.5947 45.7756C39.6418 45.7069 39.6889 45.6168 39.736 45.5069C39.7698 45.4244 39.8081 45.3374 39.8508 45.2458C39.8934 45.1542 39.9332 45.0687 39.9685 44.9878C40.0347 44.8382 40.0995 44.6993 40.1628 44.571C40.2276 44.4413 40.2997 44.3298 40.3836 44.2337C40.466 44.139 40.5631 44.0642 40.6765 44.0093C40.7883 43.9543 40.9281 43.9268 41.0945 43.9268C41.1739 43.9268 41.2152 43.9696 41.2152 44.0566V44.3268C41.2152 44.3573 41.2049 44.3848 41.1857 44.4077C41.1666 44.4306 41.1401 44.4413 41.1062 44.4413C41.0459 44.4443 40.9914 44.452 40.9429 44.4672C40.8943 44.4825 40.8457 44.5115 40.8016 44.5512C40.7559 44.5924 40.7103 44.6474 40.6632 44.7161C40.6176 44.7848 40.569 44.8748 40.5204 44.9848L40.2805 45.4824C40.2084 45.6382 40.1392 45.7801 40.0715 45.9129C40.0038 46.0442 39.9214 46.1648 39.8257 46.2748L41.4624 48.4731H41.4595C41.4727 48.4945 41.483 48.5097 41.4874 48.5204C41.4933 48.5326 41.4948 48.5387 41.4948 48.5402C41.4948 48.5387 41.4816 48.5372 41.4565 48.5372H40.8546C40.8251 48.5372 40.7972 48.5128 40.7707 48.4624L39.3754 46.5312C39.3356 46.5419 39.2944 46.5495 39.2517 46.5556C39.209 46.5618 39.1634 46.5648 39.1104 46.5648V48.4349C39.1104 48.47 39.1016 48.496 39.0839 48.5128C39.0663 48.5296 39.0412 48.5372 39.0118 48.5372H38.6968V48.5357Z" fill="#2D4652"/>
<path d="M43.6481 48.5351C43.5525 48.5351 43.5054 48.4893 43.5054 48.3993V44.0621C43.5054 44.0209 43.5201 43.9873 43.5495 43.9629C43.579 43.9385 43.6128 43.9263 43.6481 43.9263H43.8939C43.9307 43.9263 43.9616 43.937 43.9852 43.9583C44.0073 43.9797 44.022 44.0102 44.0249 44.0469V47.6176L46.7125 43.9873C46.7419 43.9461 46.7802 43.9263 46.8258 43.9263H47.1585C47.1982 43.9263 47.2306 43.94 47.2541 43.966C47.2777 43.9934 47.2909 44.027 47.2909 44.0682V48.3993C47.2909 48.4909 47.2468 48.5351 47.1599 48.5351H46.9112C46.82 48.5351 46.7743 48.4893 46.7743 48.3993V44.7598L44.0441 48.4771C44.0146 48.5168 43.9778 48.5367 43.9337 48.5367H43.6481V48.5351Z" fill="#2D4652"/>
<path d="M49.3721 48.5754C49.3354 48.5754 49.3044 48.5647 49.2838 48.5433C49.2632 48.5219 49.2529 48.4929 49.2529 48.4578V48.2502C49.2529 48.209 49.2647 48.1769 49.2883 48.154C49.3118 48.1311 49.3442 48.1204 49.3839 48.1204C49.4502 48.1204 49.5105 48.1036 49.5664 48.0701C49.6224 48.0365 49.6709 47.9922 49.7121 47.9372C49.7534 47.8838 49.7843 47.8243 49.8078 47.7602C49.8314 47.696 49.8417 47.6334 49.8417 47.5739V44.0337C49.8417 43.9619 49.8755 43.9253 49.9403 43.9253H52.8295C52.8545 43.9253 52.8795 43.9345 52.9031 43.9528C52.9252 43.9711 52.9369 43.997 52.9369 44.0276V48.4334C52.9369 48.5021 52.9016 48.5357 52.8295 48.5357H52.5175C52.4512 48.5357 52.4189 48.5021 52.4189 48.4334V44.4627H50.3598V47.5739C50.3598 47.7098 50.3318 47.8395 50.2773 47.9617C50.2229 48.0838 50.1493 48.1907 50.058 48.2807C49.9668 48.3723 49.8608 48.4441 49.7416 48.496C49.6224 48.5494 49.5002 48.5754 49.3721 48.5754Z" fill="#2D4652"/>
<path d="M57.2731 43.8628C57.4821 43.8628 57.6852 43.8903 57.8795 43.9468C58.0738 44.0032 58.2563 44.0826 58.4241 44.1864C58.5933 44.2902 58.7464 44.4139 58.8862 44.5574C59.026 44.7009 59.1452 44.8612 59.2439 45.0383C59.3425 45.2154 59.419 45.4047 59.4749 45.6077C59.5294 45.8108 59.5574 46.0214 59.5574 46.2413C59.5574 46.458 59.5309 46.6687 59.4764 46.8702C59.422 47.0717 59.3454 47.261 59.2453 47.4351C59.1467 47.6106 59.026 47.7694 58.8877 47.9129C58.7479 48.0579 58.5948 48.1801 58.4255 48.2823C58.2563 48.3846 58.0723 48.464 57.878 48.5205C57.6822 48.5754 57.4791 48.6045 57.2672 48.6045C57.0552 48.6045 56.8521 48.577 56.6593 48.5205C56.4665 48.464 56.284 48.3846 56.1147 48.2808C55.9455 48.177 55.7909 48.0533 55.6526 47.9098C55.5142 47.7663 55.395 47.6076 55.2964 47.432C55.1978 47.2565 55.1212 47.0687 55.0683 46.8672C55.0138 46.6657 54.9873 46.455 54.9873 46.2352C54.9873 46.0184 55.0138 45.8077 55.0683 45.6062C55.1212 45.4031 55.1992 45.2154 55.2993 45.0398C55.3994 44.8643 55.5186 44.704 55.657 44.5589C55.7968 44.4139 55.9499 44.2902 56.1206 44.188C56.2899 44.0857 56.4724 44.0063 56.6667 43.9483C56.858 43.8903 57.0611 43.8628 57.2731 43.8628ZM55.5039 46.2321C55.5039 46.487 55.5495 46.7252 55.6408 46.9481C55.7321 47.171 55.8586 47.3648 56.0191 47.5312C56.1795 47.6976 56.3679 47.8289 56.5813 47.9236C56.7962 48.0198 57.0258 48.0671 57.2716 48.0671C57.513 48.0671 57.7411 48.0198 57.956 47.9236C58.1709 47.8289 58.3578 47.6976 58.5153 47.5312C58.6743 47.3648 58.7994 47.1694 58.8921 46.9481C58.9848 46.7252 59.0319 46.487 59.0319 46.2321C59.0319 46.0642 59.0113 45.9039 58.9686 45.7482C58.9274 45.5924 58.8671 45.4474 58.7905 45.3115C58.714 45.1757 58.6213 45.0536 58.5153 44.9421C58.4093 44.8307 58.2901 44.736 58.1591 44.6566C58.0281 44.5772 57.8883 44.5147 57.7382 44.4719C57.588 44.4292 57.4335 44.4063 57.2716 44.4063C57.0258 44.4063 56.7962 44.4551 56.5813 44.5513C56.3664 44.6475 56.1795 44.7788 56.0191 44.9436C55.8586 45.1085 55.7321 45.3024 55.6408 45.5238C55.5495 45.7451 55.5039 45.9817 55.5039 46.2321Z" fill="#2D4652"/>
<path d="M61.7727 48.5357C61.677 48.5357 61.6299 48.4899 61.6299 48.3999V44.0628C61.6299 44.0215 61.6446 43.988 61.674 43.9635C61.7035 43.9391 61.7373 43.9269 61.7727 43.9269H62.0184C62.0552 43.9269 62.0861 43.9376 62.1097 43.9589C62.1318 43.9803 62.1465 44.0108 62.1494 44.0475V47.6182L64.837 43.988C64.8665 43.9467 64.9047 43.9269 64.9503 43.9269H65.283C65.3227 43.9269 65.3551 43.9406 65.3787 43.9666C65.4022 43.9941 65.4155 44.0276 65.4155 44.0689V48.3999C65.4155 48.4915 65.3713 48.5357 65.2845 48.5357H65.0357C64.9445 48.5357 64.8988 48.4899 64.8988 48.3999V44.7604L62.1686 48.4777C62.1391 48.5174 62.1023 48.5373 62.0582 48.5373H61.7727V48.5357ZM63.8111 43.301C63.9024 43.2628 63.9833 43.2094 64.0511 43.1422C64.1188 43.075 64.1717 43.0002 64.2115 42.9147C64.2512 42.8293 64.2704 42.7392 64.2704 42.6461C64.2704 42.6003 64.2542 42.5682 64.2218 42.5514C64.1894 42.5346 64.1556 42.5255 64.1173 42.5255H63.9436C63.895 42.5255 63.8641 42.5422 63.8494 42.5728C63.8347 42.6048 63.8273 42.6384 63.8273 42.6735C63.8273 42.7407 63.8008 42.7972 63.7449 42.8476C63.689 42.898 63.6169 42.9224 63.5286 42.9224C63.4241 42.9224 63.346 42.8949 63.2916 42.8384C63.2386 42.7819 63.2106 42.7178 63.2106 42.6461C63.2106 42.6125 63.2003 42.585 63.1783 42.5606C63.1562 42.5361 63.1267 42.5239 63.0914 42.5239H62.8912C62.8589 42.5239 62.8324 42.5346 62.8088 42.5575C62.7853 42.5804 62.7735 42.6094 62.7735 42.6445C62.7735 42.7377 62.7926 42.8262 62.8294 42.9117C62.8677 42.9972 62.9207 43.072 62.9869 43.1361C63.0532 43.2017 63.1312 43.2537 63.2224 43.2949C63.3122 43.3346 63.4093 43.3559 63.5153 43.359C63.6198 43.359 63.7184 43.3391 63.8111 43.301Z" fill="#2D4652"/>
<path d="M71.3965 46.077C71.4583 46.077 71.5246 46.0678 71.5923 46.048C71.66 46.0281 71.7321 45.9961 71.8027 45.9503C71.8748 45.9045 71.947 45.8449 72.0191 45.7732C72.0912 45.7014 72.1633 45.6114 72.234 45.506L72.5813 44.987C72.6829 44.8343 72.7786 44.6923 72.8683 44.5626C72.9581 44.4328 73.0538 44.3214 73.1554 44.2267C73.2554 44.1321 73.3688 44.0588 73.4924 44.0038C73.616 43.9504 73.7632 43.9214 73.9325 43.9168C73.9678 43.9122 73.9972 43.9199 74.0178 43.9397C74.0385 43.9596 74.0488 43.9901 74.0488 44.0313V44.3046C74.0443 44.3382 74.034 44.3672 74.0149 44.3931C73.9958 44.4191 73.9693 44.4313 73.9354 44.4313C73.8236 44.4374 73.6985 44.4893 73.5601 44.5885C73.4203 44.6862 73.279 44.8389 73.1333 45.0435L72.783 45.5396L72.7226 45.6297C72.6829 45.6877 72.6402 45.7472 72.596 45.8098C72.5519 45.8724 72.5107 45.9289 72.4709 45.9808L74.5065 48.4707L74.5036 48.4677L74.5448 48.5333H74.5124H73.878C73.8442 48.5333 73.8103 48.5073 73.7765 48.4554L72.0912 46.3625C71.997 46.4235 71.894 46.4724 71.7807 46.5121C71.6688 46.5518 71.5393 46.5792 71.3965 46.593V48.3974C71.3965 48.4432 71.3847 48.4768 71.3612 48.4997C71.3376 48.5226 71.3038 48.5333 71.2626 48.5333H71.0138C70.924 48.5333 70.8799 48.4875 70.8799 48.3974V44.0603C70.8799 44.0191 70.8917 43.9855 70.9152 43.9611C70.9373 43.9367 70.9711 43.9244 71.0153 43.9244H71.264C71.3038 43.9244 71.3362 43.9367 71.3612 43.9611C71.3862 43.9855 71.398 44.0191 71.398 44.0603V46.077H71.3965Z" fill="#2D4652"/>
<path d="M78.6617 43.8628C78.8707 43.8628 79.0739 43.8903 79.2681 43.9468C79.4624 44.0032 79.6449 44.0826 79.8127 44.1864C79.982 44.2902 80.1351 44.4139 80.2749 44.5574C80.4147 44.7009 80.5339 44.8612 80.6325 45.0383C80.7312 45.2154 80.8077 45.4047 80.8636 45.6077C80.9195 45.8108 80.946 46.0214 80.946 46.2413C80.946 46.458 80.9195 46.6687 80.8651 46.8702C80.8106 47.0717 80.7341 47.261 80.634 47.4351C80.5354 47.6106 80.4147 47.7694 80.2764 47.9129C80.1365 48.0579 79.9835 48.1801 79.8142 48.2823C79.6449 48.3846 79.461 48.464 79.2667 48.5205C79.0709 48.5754 78.8678 48.6045 78.6559 48.6045C78.4439 48.6045 78.2408 48.577 78.048 48.5205C77.8552 48.4655 77.6727 48.3846 77.5034 48.2808C77.3341 48.177 77.1796 48.0533 77.0413 47.9098C76.9029 47.7663 76.7837 47.6076 76.6851 47.432C76.5865 47.2565 76.5099 47.0687 76.4569 46.8672C76.4025 46.6657 76.376 46.455 76.376 46.2352C76.376 46.0184 76.4025 45.8077 76.4569 45.6062C76.5099 45.4031 76.5879 45.2154 76.688 45.0398C76.7881 44.8643 76.9073 44.704 77.0457 44.5589C77.1855 44.4139 77.3386 44.2902 77.5093 44.188C77.6786 44.0857 77.8611 44.0063 78.0554 43.9483C78.2467 43.8903 78.4498 43.8628 78.6617 43.8628ZM76.8926 46.2321C76.8926 46.487 76.9382 46.7252 77.0295 46.9481C77.1207 47.171 77.2473 47.3648 77.4077 47.5312C77.5682 47.6976 77.7566 47.8289 77.97 47.9236C78.1849 48.0198 78.4145 48.0671 78.6603 48.0671C78.9017 48.0671 79.1298 48.0198 79.3447 47.9236C79.5596 47.8289 79.7465 47.6976 79.904 47.5312C80.0629 47.3648 80.188 47.1694 80.2808 46.9481C80.3735 46.7252 80.4206 46.487 80.4206 46.2321C80.4206 46.0642 80.4 45.9039 80.3573 45.7482C80.3161 45.5924 80.2558 45.4474 80.1792 45.3115C80.1027 45.1757 80.01 45.0536 79.904 44.9421C79.798 44.8307 79.6788 44.736 79.5478 44.6566C79.4168 44.5772 79.277 44.5147 79.1268 44.4719C78.9767 44.4292 78.8222 44.4063 78.6603 44.4063C78.4145 44.4063 78.1849 44.4551 77.97 44.5513C77.7551 44.6475 77.5682 44.7788 77.4077 44.9436C77.2473 45.1085 77.1207 45.3024 77.0295 45.5238C76.9382 45.7451 76.8926 45.9817 76.8926 46.2321Z" fill="#2D4652"/>
<path d="M85.1127 48.3367C85.0627 48.3367 85.023 48.2985 84.992 48.2222L83.6173 44.8667L83.2847 48.4008C83.2847 48.4924 83.2391 48.5367 83.1493 48.5367H82.8976C82.8078 48.5367 82.7622 48.4909 82.7622 48.4008C82.8343 47.6726 82.9065 46.949 82.9786 46.2315C83.0507 45.514 83.1228 44.7919 83.1964 44.0621C83.1964 44.0224 83.2097 43.9904 83.2361 43.9644C83.2626 43.9385 83.2965 43.9263 83.3362 43.9263H83.7101C83.7439 43.9263 83.7719 43.937 83.7925 43.9583C83.8131 43.9797 83.8308 44.0102 83.8411 44.0469L85.2275 47.5092C85.4616 46.9276 85.6941 46.3505 85.9237 45.7781C86.1548 45.2056 86.3844 44.6285 86.617 44.0469C86.6273 44.0102 86.6435 43.9797 86.6655 43.9583C86.6876 43.937 86.7141 43.9263 86.7465 43.9263H87.1321C87.1718 43.9263 87.2042 43.94 87.2278 43.966C87.2513 43.9934 87.2631 44.0255 87.2631 44.0621L87.7002 48.3993C87.7002 48.4909 87.6561 48.5351 87.5663 48.5351H87.3146C87.2248 48.5351 87.1792 48.4893 87.1792 48.3993L86.8436 44.8651L85.4689 48.2206C85.4395 48.297 85.3968 48.3351 85.3438 48.3351H85.1127V48.3367Z" fill="#2D4652"/>
<path d="M92.9943 43.9253C93.0591 43.9253 93.09 43.9619 93.09 44.0337V48.412C93.09 48.4456 93.0767 48.4731 93.0502 48.499C93.0238 48.5235 92.9958 48.5357 92.9634 48.5357H92.7029C92.6705 48.5357 92.6411 48.5219 92.6146 48.496C92.5881 48.4685 92.5748 48.438 92.5748 48.4028V44.4627H90.395V48.4028C90.395 48.438 90.3818 48.47 90.3524 48.496C90.3244 48.5235 90.2964 48.5357 90.2655 48.5357H90.0021C89.9726 48.5357 89.9432 48.5235 89.9167 48.499C89.8902 48.4746 89.877 48.4456 89.877 48.412V44.0337C89.877 43.9619 89.9093 43.9253 89.9726 43.9253H92.9943Z" fill="#2D4652"/>
<path d="M95.1716 48.5754C95.1333 48.5754 95.1039 48.5647 95.0833 48.5433C95.0627 48.5219 95.0524 48.4929 95.0524 48.4578V48.2502C95.0524 48.209 95.0641 48.1769 95.0877 48.154C95.1112 48.1311 95.1436 48.1204 95.1834 48.1204C95.2496 48.1204 95.3099 48.1036 95.3659 48.07C95.4218 48.0365 95.4704 47.9922 95.5116 47.9372C95.5528 47.8838 95.5837 47.8243 95.6073 47.7601C95.6308 47.696 95.6411 47.6334 95.6411 47.5739V44.0337C95.6411 43.9619 95.675 43.9253 95.7397 43.9253H98.6289C98.6539 43.9253 98.679 43.9345 98.7025 43.9528C98.7246 43.9711 98.7364 43.997 98.7364 44.0276V48.4334C98.7364 48.5021 98.701 48.5357 98.6289 48.5357H98.3169C98.2507 48.5357 98.2183 48.5021 98.2183 48.4334V44.4627H96.1592V47.5739C96.1592 47.7098 96.1312 47.8395 96.0768 47.9617C96.0223 48.0838 95.9487 48.1906 95.8575 48.2807C95.7662 48.3708 95.6602 48.4441 95.541 48.496C95.4218 48.5494 95.2996 48.5754 95.1716 48.5754Z" fill="#2D4652"/>
<path d="M104.014 43.9249C104.104 43.9249 104.148 43.9737 104.148 44.0699V44.3218C104.148 44.3599 104.136 44.392 104.113 44.421C104.089 44.45 104.054 44.4653 104.008 44.4653H101.521V45.8377H103.501C103.536 45.8377 103.567 45.8484 103.593 45.8713C103.62 45.8942 103.633 45.9293 103.633 45.9797V46.2346C103.633 46.2713 103.623 46.3049 103.601 46.3339C103.579 46.3629 103.546 46.3766 103.502 46.3766H101.522V47.9948H104.038C104.128 47.9948 104.172 48.0437 104.172 48.1398V48.3978C104.172 48.4894 104.128 48.5337 104.041 48.5337H101.137C101.049 48.5337 101.006 48.4894 101.006 48.4024V44.0653C101.006 43.9707 101.05 43.9233 101.137 43.9233H104.014V43.9249Z" fill="#2D4652"/>
<path d="M106.684 46.077C106.745 46.077 106.812 46.0678 106.879 46.048C106.947 46.0281 107.019 45.9961 107.09 45.9503C107.162 45.9045 107.234 45.8449 107.306 45.7732C107.378 45.7014 107.45 45.6114 107.521 45.506L107.868 44.987C107.97 44.8343 108.066 44.6923 108.155 44.5626C108.245 44.4328 108.341 44.3214 108.442 44.2267C108.543 44.1321 108.656 44.0588 108.78 44.0038C108.903 43.9504 109.05 43.9214 109.22 43.9168C109.255 43.9122 109.284 43.9199 109.305 43.9397C109.326 43.9596 109.336 43.9901 109.336 44.0313V44.3046C109.331 44.3382 109.321 44.3672 109.302 44.3931C109.283 44.4191 109.256 44.4313 109.223 44.4313C109.111 44.4374 108.986 44.4893 108.847 44.5885C108.707 44.6862 108.566 44.8389 108.42 45.0435L108.07 45.5396L108.01 45.6297C107.97 45.6877 107.927 45.7472 107.883 45.8098C107.839 45.8724 107.798 45.9289 107.758 45.9808L109.794 48.4707L109.791 48.4677L109.832 48.5333H109.8H109.165C109.131 48.5333 109.097 48.5073 109.064 48.4554L107.378 46.3625C107.284 46.4235 107.181 46.4724 107.068 46.5121C106.956 46.5518 106.826 46.5792 106.684 46.593V48.3974C106.684 48.4432 106.672 48.4768 106.648 48.4997C106.625 48.5226 106.591 48.5333 106.55 48.5333H106.301C106.211 48.5333 106.167 48.4875 106.167 48.3974V44.0603C106.167 44.0191 106.179 43.9855 106.202 43.9611C106.224 43.9367 106.258 43.9244 106.302 43.9244H106.551C106.591 43.9244 106.623 43.9367 106.648 43.9611C106.673 43.9855 106.685 44.0191 106.685 44.0603V46.077H106.684Z" fill="#2D4652"/>
<path d="M115.309 44.328C115.331 44.3448 115.349 44.3616 115.365 44.3784C115.379 44.3952 115.387 44.4151 115.387 44.4364C115.387 44.4532 115.382 44.4715 115.374 44.4914C115.365 44.5112 115.354 44.528 115.346 44.5433L115.219 44.7479C115.187 44.7952 115.153 44.8196 115.117 44.8196C115.103 44.8181 115.088 44.8135 115.069 44.8059C115.05 44.7982 115.031 44.786 115.009 44.7692C114.858 44.6578 114.694 44.5693 114.513 44.5051C114.332 44.441 114.149 44.409 113.964 44.409C113.702 44.409 113.463 44.4578 113.244 44.557C113.025 44.6563 112.838 44.7906 112.68 44.9601C112.523 45.1295 112.399 45.3234 112.312 45.5448C112.224 45.7661 112.181 45.9997 112.181 46.2439C112.181 46.5004 112.23 46.7401 112.328 46.963C112.425 47.1859 112.556 47.3782 112.72 47.5416C112.883 47.7049 113.072 47.8332 113.285 47.9263C113.498 48.0194 113.721 48.0652 113.952 48.0652C114.03 48.0652 114.106 48.0606 114.181 48.0515C114.256 48.0423 114.332 48.0255 114.408 48.0026C114.483 47.9797 114.563 47.9492 114.644 47.9125C114.725 47.8759 114.808 47.8286 114.897 47.7736C114.914 47.766 114.934 47.7538 114.956 47.737C114.976 47.7217 114.997 47.7064 115.016 47.6897C115.035 47.6744 115.053 47.6622 115.072 47.6515C115.09 47.6408 115.104 47.6362 115.116 47.6362C115.154 47.6362 115.188 47.6622 115.218 47.7141L115.354 47.9507C115.368 47.9782 115.375 48.0057 115.375 48.0377C115.375 48.082 115.353 48.1171 115.306 48.1431C115.116 48.285 114.908 48.398 114.68 48.4789C114.452 48.5613 114.208 48.601 113.944 48.601C113.732 48.601 113.529 48.5736 113.337 48.5171C113.144 48.4621 112.961 48.3812 112.792 48.2774C112.623 48.1736 112.468 48.0499 112.33 47.9064C112.191 47.7629 112.072 47.6042 111.974 47.4286C111.875 47.253 111.798 47.0653 111.746 46.8638C111.691 46.6622 111.665 46.4516 111.665 46.2317C111.665 46.015 111.691 45.8043 111.746 45.6028C111.798 45.3997 111.876 45.212 111.977 45.0364C112.077 44.8608 112.196 44.7005 112.334 44.5555C112.474 44.4105 112.627 44.2868 112.798 44.1845C112.967 44.0823 113.15 44.0029 113.344 43.9449C113.538 43.8884 113.741 43.8594 113.953 43.8594C114.205 43.8594 114.445 43.8991 114.673 43.98C114.898 44.0639 115.11 44.1784 115.309 44.328Z" fill="#2D4652"/>
<path d="M61.8024 18.9867C61.1063 18.9333 60.5779 19.3882 60.4852 19.8172L60.0524 36.9076C60.0097 37.5824 60.2143 37.8923 60.6206 37.9244C61.04 37.9564 61.2682 37.6801 61.3109 37.0053L63.0035 20.0141C62.9446 19.4859 62.4986 19.0417 61.8024 18.9867Z" fill="#2D4652" stroke="#2D4652" stroke-width="0.387941" stroke-miterlimit="10"/>
<path d="M62.2732 6.35295C62.2599 6.35143 62.2467 6.35295 62.2349 6.35143C55.1127 5.81406 48.7058 10.0061 45.5796 16.482C46.5333 16.3217 47.5151 16.2622 48.5203 16.3401C49.0428 16.3813 49.5536 16.4607 50.0555 16.566C51.8423 16.9415 53.4922 17.7064 54.9346 18.7735C54.942 18.7704 54.9479 18.7674 54.9552 18.7643C56.1562 9.40465 61.3665 6.77583 62.3438 6.36211C62.3188 6.35906 62.2967 6.35448 62.2732 6.35295Z" fill="url(#paint0_linear_130_3944)"/>
<path d="M62.3983 6.36194C62.3747 6.36041 62.3527 6.36041 62.3291 6.35889C63.2461 6.92068 68.0796 10.3311 68.1075 19.7855C68.1134 19.79 68.1208 19.7946 68.1267 19.7977C70.1254 18.7306 72.398 18.1962 74.7809 18.381C75.7847 18.4588 76.7502 18.671 77.6745 18.9779C75.3784 12.0715 69.5367 6.91763 62.3983 6.36194Z" fill="url(#paint1_linear_130_3944)"/>
<path d="M62.3422 6.36871L62.329 6.36719C61.3237 6.79617 56.1502 9.43874 54.9536 18.7633C56.948 17.7023 59.2116 17.171 61.5872 17.3573C61.6063 17.3588 61.6932 17.3649 61.7123 17.3664C64.0879 17.5512 66.2632 18.4274 68.1074 19.7877C68.0795 10.3669 63.2842 6.94883 62.3422 6.36871Z" fill="url(#paint2_linear_130_3944)"/>
<path d="M62.2911 7.07592C62.528 7.09424 62.7385 7.03776 62.8577 6.937C62.9343 6.87136 62.9549 6.75228 62.9284 6.65L62.6958 5.75693C62.6281 5.53862 62.6002 5.45619 62.3926 5.44092C62.1777 5.42413 62.1248 5.51572 62.0541 5.70808L61.7126 6.55688C61.6729 6.65458 61.6788 6.77518 61.748 6.85304C61.8525 6.96906 62.0556 7.05761 62.2911 7.07592Z" fill="#2D4652"/>
<path d="M62.326 9.57171C61.1559 9.57171 60.1978 8.57788 60.1978 7.36422C60.1978 6.15056 61.1559 5.15674 62.326 5.15674C63.4962 5.15674 64.4543 6.15056 64.4543 7.36422C64.4543 8.57788 63.4962 9.57171 62.326 9.57171Z" stroke="#2D4652" stroke-width="1.1638" stroke-miterlimit="10"/>
<path d="M61.5458 19.1025C60.3756 19.1025 59.4175 18.1086 59.4175 16.895C59.4175 15.6813 60.3756 14.6875 61.5458 14.6875C62.7159 14.6875 63.674 15.6813 63.674 16.895C63.6755 18.1086 62.7173 19.1025 61.5458 19.1025Z" stroke="#2D4652" stroke-width="1.1638" stroke-miterlimit="10"/>
<path d="M55.3524 19.8212C54.1823 19.8212 53.2241 18.8274 53.2241 17.6137C53.2241 16.4001 54.1823 15.4062 55.3524 15.4062C56.5225 15.4062 57.4807 16.4001 57.4807 17.6137C57.4807 18.8274 56.5225 19.8212 55.3524 19.8212Z" stroke="#2D4652" stroke-width="1.1638" stroke-miterlimit="10"/>
<path d="M67.4994 20.8935C66.3293 20.8935 65.3711 19.8997 65.3711 18.686C65.3711 17.4723 66.3293 16.4785 67.4994 16.4785C68.6695 16.4785 69.6277 17.4723 69.6277 18.686C69.6277 19.8997 68.6695 20.8935 67.4994 20.8935Z" stroke="#2D4652" stroke-width="1.1638" stroke-miterlimit="10"/>
<path d="M65.891 14.7577C64.7209 14.7577 63.7627 13.7639 63.7627 12.5503C63.7627 11.3366 64.7209 10.3428 65.891 10.3428C67.0611 10.3428 68.0193 11.3366 68.0193 12.5503C68.0193 13.7639 67.0611 14.7577 65.891 14.7577Z" stroke="#2D4652" stroke-width="1.1638" stroke-miterlimit="10"/>
<path d="M57.9691 13.9345C56.799 13.9345 55.8408 12.9407 55.8408 11.727C55.8408 10.5134 56.799 9.51953 57.9691 9.51953C59.1392 9.51953 60.0974 10.5134 60.0974 11.727C60.0989 12.9422 59.1407 13.9345 57.9691 13.9345Z" stroke="#2D4652" stroke-width="1.1638" stroke-miterlimit="10"/>
<defs>
<linearGradient id="paint0_linear_130_3944" x1="51.9094" y1="9.8815" x2="58.2894" y2="14.336" gradientUnits="userSpaceOnUse">
<stop stop-color="#EA7181"/>
<stop offset="0.6654" stop-color="#E4234C"/>
<stop offset="1" stop-color="#E10035"/>
</linearGradient>
<linearGradient id="paint1_linear_130_3944" x1="61.8927" y1="12.838" x2="78.0137" y2="13.9224" gradientUnits="userSpaceOnUse">
<stop stop-color="#FFEC00"/>
<stop offset="1" stop-color="#E65113"/>
</linearGradient>
<linearGradient id="paint2_linear_130_3944" x1="55.3825" y1="12.3668" x2="68.5459" y2="13.2523" gradientUnits="userSpaceOnUse">
<stop stop-color="#3BB9D0"/>
<stop offset="0.2383" stop-color="#39B6CE"/>
<stop offset="0.4201" stop-color="#34ACC7"/>
<stop offset="0.5831" stop-color="#2C9CBB"/>
<stop offset="0.7352" stop-color="#2085AA"/>
<stop offset="0.8783" stop-color="#106794"/>
<stop offset="1" stop-color="#00487D"/>
</linearGradient>
</defs>
</svg>
