<svg width="129" height="46" viewBox="0 0 129 46" fill="none" xmlns="http://www.w3.org/2000/svg">
<path d="M112.98 10.735C116.341 10.735 118.405 8.33175 118.405 6.60866C118.405 5.60211 117.628 4.87256 116.558 4.87256C115.872 4.87256 115.386 5.2796 114.917 5.67233C114.379 6.12359 113.871 6.55014 112.98 6.55014C112.143 6.55014 111.644 6.1366 111.117 5.69704C110.631 5.2926 110.127 4.87256 109.402 4.87256C108.35 4.87256 107.555 5.63332 107.555 6.63987C107.555 8.49561 109.976 10.735 112.98 10.735Z" fill="#2D4652"/>
<path d="M44.3063 15.981C45.6741 15.981 46.7823 14.8653 46.7823 13.4881C46.7823 12.1109 45.6741 10.9951 44.3063 10.9951H32.8393C31.4715 10.9951 30.3633 12.1109 30.3633 13.4881V28.7098C30.3633 30.087 31.4715 31.2028 32.8393 31.2028H44.3063C45.6741 31.2028 46.7823 30.087 46.7823 28.7098C46.7823 27.3327 45.6741 26.2169 44.3063 26.2169H35.3153V23.5913H41.1754C42.5432 23.5913 43.6514 22.4755 43.6514 21.0983C43.6514 19.7211 42.5432 18.6053 41.1754 18.6053H35.3153V15.9797H44.3063V15.981Z" fill="#2D4652"/>
<path d="M77.8453 10.9951C76.4775 10.9951 75.3693 12.1109 75.3693 13.4881V18.6196C75.3241 18.617 75.2814 18.6066 75.2362 18.6066H67.9877V13.4881C67.9877 12.1109 66.8795 10.9951 65.5117 10.9951C64.1438 10.9951 63.0356 12.1109 63.0356 13.4881V28.7098C63.0356 30.087 64.1438 31.2028 65.5117 31.2028C66.8795 31.2028 67.9877 30.087 67.9877 28.7098V23.5913H75.2362C75.2814 23.5913 75.3254 23.5796 75.3693 23.5783V28.7098C75.3693 30.087 76.4775 31.2028 77.8453 31.2028C79.2131 31.2028 80.3213 30.087 80.3213 28.7098V13.4881C80.3226 12.1109 79.2131 10.9951 77.8453 10.9951Z" fill="#2D4652"/>
<path d="M24.5405 10.9951C24.5172 10.9951 24.4966 11.0016 24.4733 11.0016C24.4501 11.0016 24.4294 10.9951 24.4061 10.9951H15.0264C13.7981 10.9951 12.7855 11.8989 12.5917 13.0797C12.562 13.1955 12.5323 13.3112 12.5207 13.4348L11.313 25.7695C11.2601 25.9139 11.2058 26.5589 10.2578 26.3573C8.93906 26.0764 7.89802 26.4145 7.58028 27.7579C7.20442 29.3471 8.09047 30.7242 9.36012 30.996C9.87806 31.1066 10.3573 31.1482 10.7964 31.1391C11.9563 31.1144 12.8372 30.7372 13.4313 30.3588C14.143 29.9062 14.6609 29.3315 15.0329 28.7684C15.5909 27.9231 15.8996 26.936 15.999 25.9256L16.9819 15.9823H22.0619V28.7111C22.0619 30.0883 23.1701 31.2041 24.5379 31.2041C25.9057 31.2041 27.0139 30.0883 27.0139 28.7111V13.4881C27.0178 12.1109 25.9083 10.9951 24.5405 10.9951Z" fill="#2D4652"/>
<path d="M98.6973 10.9951C97.8216 10.9951 97.0569 11.4555 96.6165 12.146C96.5752 12.1915 96.5287 12.2292 96.4899 12.2774L88.8384 21.755V13.4894C88.8384 12.1122 87.7302 10.9964 86.3624 10.9964C84.9946 10.9964 83.8864 12.1122 83.8864 13.4894V28.7098C83.8864 30.087 84.9946 31.2028 86.3624 31.2028C87.1193 31.2028 87.787 30.8543 88.2417 30.3159C88.3838 30.1936 88.5181 30.0545 88.6408 29.9023L96.22 20.5144V28.7098C96.22 30.087 97.3282 31.2028 98.696 31.2028C100.064 31.2028 101.172 30.087 101.172 28.7098V13.4881C101.173 12.1109 100.065 10.9951 98.6973 10.9951Z" fill="#2D4652"/>
<path d="M119.027 10.9951C118.152 10.9951 117.387 11.4555 116.946 12.146C116.905 12.1915 116.859 12.2292 116.82 12.2774L109.168 21.755V13.4894C109.168 12.1122 108.06 10.9964 106.692 10.9964C105.325 10.9964 104.216 12.1122 104.216 13.4894V28.7098C104.216 30.087 105.325 31.2028 106.692 31.2028C107.449 31.2028 108.117 30.8543 108.572 30.3159C108.714 30.1936 108.848 30.0545 108.971 29.9023L116.55 20.5144V28.7098C116.55 30.087 117.658 31.2028 119.026 31.2028C120.394 31.2028 121.502 30.087 121.502 28.7098V13.4881C121.503 12.1109 120.395 10.9951 119.027 10.9951Z" fill="#2D4652"/>
<path d="M55.8996 8.61391L55.8027 8.08073C55.7614 7.90387 55.7446 7.83754 55.578 7.81153C55.4049 7.78422 55.3558 7.85315 55.2861 7.9988L55.0407 8.47736C49.4273 7.74261 44.1782 9.43319 41.7061 14.9757C46.0665 15.5999 46.99 18.0188 48.0918 18.9564C48.097 18.9538 48.6072 18.3465 48.6136 18.3439C50.3005 17.6429 52.2405 16.8353 54.1546 17.141C54.1701 17.1436 54.2399 17.1553 54.2554 17.1579C56.1708 17.4635 57.8784 18.301 59.2875 19.4961C59.2927 19.5 59.2978 19.5039 59.3017 19.5078C60.6605 18.3504 63.8172 17.1644 66.5541 17.2957C65.1695 11.8234 61.4678 9.66467 55.8996 8.61391Z" fill="#CACDD0"/>
<path d="M33.9588 41.3448C33.9019 41.3448 33.8748 41.3162 33.8748 41.2577V39.6647C33.8296 39.6647 33.7883 39.6621 33.7495 39.6569C33.7121 39.6517 33.6759 39.6452 33.641 39.636L32.4192 41.2811C32.3959 41.324 32.3714 41.3448 32.343 41.3448H31.8147C31.794 41.3448 31.7837 41.3461 31.7837 41.3474C31.7837 41.3461 31.785 41.3409 31.7889 41.3305C31.7927 41.3214 31.8005 41.3071 31.8121 41.2902H31.8095L33.2497 39.4176C33.167 39.3239 33.096 39.2212 33.0353 39.1094C32.9746 38.9975 32.9139 38.8753 32.8531 38.7426L32.6374 38.3187C32.5935 38.2251 32.5522 38.1483 32.5109 38.0898C32.4708 38.0313 32.4308 37.9845 32.3907 37.9494C32.3507 37.9156 32.3081 37.8908 32.2642 37.8778C32.2203 37.8648 32.1725 37.857 32.1221 37.8557C32.0937 37.8557 32.0717 37.8466 32.0562 37.8271C32.0407 37.8076 32.033 37.7842 32.033 37.7582V37.528C32.033 37.4539 32.0653 37.4175 32.1324 37.4175C32.2758 37.4175 32.3972 37.4409 32.4967 37.4903C32.5974 37.5384 32.6839 37.6047 32.7576 37.688C32.8312 37.7712 32.8958 37.8661 32.9526 37.9767C33.0081 38.0859 33.065 38.2017 33.1205 38.3226L33.3285 38.7647C33.3711 38.8584 33.4111 38.9351 33.4525 38.9936C33.4925 39.0521 33.5351 39.1003 33.579 39.1354C33.623 39.1705 33.6682 39.1952 33.7172 39.2082C33.765 39.2212 33.818 39.2277 33.8761 39.2277V37.5059C33.8761 37.4812 33.8826 37.4604 33.8981 37.4435C33.9123 37.4266 33.9329 37.4188 33.9601 37.4188H34.2378C34.2636 37.4188 34.2855 37.4266 34.301 37.4435C34.3165 37.4604 34.3243 37.4812 34.3243 37.5059V39.2277C34.3824 39.2277 34.4354 39.2212 34.4832 39.2082C34.531 39.1952 34.5775 39.1705 34.6201 39.1354C34.6627 39.1003 34.7053 39.0521 34.7467 38.9936C34.788 38.9351 34.8293 38.8584 34.8707 38.7647C34.9004 38.6945 34.9339 38.6204 34.9714 38.5424C35.0089 38.4643 35.0437 38.3915 35.0747 38.3226C35.1328 38.1951 35.1897 38.0768 35.2452 37.9676C35.3021 37.857 35.3653 37.7621 35.439 37.6802C35.5113 37.5995 35.5965 37.5358 35.696 37.489C35.7942 37.4422 35.9169 37.4188 36.0628 37.4188C36.1326 37.4188 36.1687 37.4552 36.1687 37.5293V37.7595C36.1687 37.7855 36.1597 37.8089 36.1429 37.8284C36.1261 37.8479 36.1029 37.857 36.0731 37.857C36.0202 37.8596 35.9724 37.8661 35.9298 37.8791C35.8872 37.8921 35.8445 37.9169 35.8058 37.9507C35.7657 37.9858 35.7257 38.0326 35.6844 38.0911C35.6443 38.1496 35.6017 38.2264 35.5591 38.32L35.3485 38.7439C35.2853 38.8766 35.2246 38.9975 35.1651 39.1107C35.1057 39.2225 35.0334 39.3252 34.9494 39.4189L36.3857 41.2915H36.3831C36.3948 41.3097 36.4038 41.3227 36.4077 41.3318C36.4128 41.3422 36.4141 41.3474 36.4141 41.3487C36.4141 41.3474 36.4025 41.3461 36.3805 41.3461H35.8523C35.8264 41.3461 35.8019 41.3253 35.7787 41.2824L34.5542 39.6373C34.5193 39.6464 34.4832 39.653 34.4457 39.6582C34.4083 39.6634 34.3682 39.666 34.3217 39.666V41.259C34.3217 41.2889 34.314 41.311 34.2985 41.3253C34.283 41.3396 34.261 41.3461 34.2352 41.3461H33.9588V41.3448Z" fill="#2D4652"/>
<path d="M38.304 41.345C38.22 41.345 38.1787 41.306 38.1787 41.2293V37.5347C38.1787 37.4996 38.1916 37.471 38.2175 37.4502C38.2433 37.4294 38.273 37.4189 38.304 37.4189H38.5197C38.552 37.4189 38.5791 37.4281 38.5998 37.4463C38.6192 37.4645 38.6321 37.4905 38.6347 37.5217V40.5634L40.9931 37.471C41.019 37.4359 41.0526 37.4189 41.0926 37.4189H41.3845C41.4194 37.4189 41.4478 37.4307 41.4685 37.4528C41.4891 37.4762 41.5007 37.5048 41.5007 37.5399V41.2293C41.5007 41.3073 41.462 41.345 41.3858 41.345H41.1675C41.0874 41.345 41.0474 41.306 41.0474 41.2293V38.129L38.6514 41.2956C38.6256 41.3294 38.5933 41.3463 38.5546 41.3463H38.304V41.345Z" fill="#2D4652"/>
<path d="M43.3269 41.3786C43.2946 41.3786 43.2675 41.3695 43.2494 41.3513C43.2313 41.3331 43.2223 41.3084 43.2223 41.2785V41.1017C43.2223 41.0665 43.2326 41.0392 43.2533 41.0197C43.274 41.0002 43.3024 40.9911 43.3372 40.9911C43.3954 40.9911 43.4483 40.9768 43.4974 40.9482C43.5465 40.9196 43.5891 40.8819 43.6253 40.8351C43.6614 40.7895 43.6886 40.7388 43.7092 40.6842C43.7299 40.6296 43.7389 40.5763 43.7389 40.5256V37.5098C43.7389 37.4487 43.7686 37.4175 43.8255 37.4175H46.3609C46.3829 37.4175 46.4048 37.4253 46.4255 37.4409C46.4449 37.4565 46.4552 37.4786 46.4552 37.5046V41.2577C46.4552 41.3162 46.4242 41.3448 46.3609 41.3448H46.0871C46.029 41.3448 46.0005 41.3162 46.0005 41.2577V37.8752H44.1936V40.5256C44.1936 40.6413 44.169 40.7518 44.1213 40.8559C44.0735 40.9599 44.0089 41.0509 43.9288 41.1277C43.8487 41.2057 43.7557 41.2668 43.6511 41.311C43.5465 41.3565 43.4393 41.3786 43.3269 41.3786Z" fill="#2D4652"/>
<path d="M50.2602 37.3643C50.4436 37.3643 50.6218 37.3877 50.7923 37.4358C50.9628 37.4839 51.123 37.5515 51.2702 37.64C51.4187 37.7284 51.5531 37.8337 51.6758 37.956C51.7985 38.0782 51.9031 38.2147 51.9896 38.3656C52.0762 38.5165 52.1433 38.6777 52.1924 38.8507C52.2402 39.0236 52.2647 39.2031 52.2647 39.3904C52.2647 39.575 52.2415 39.7545 52.1937 39.9261C52.1459 40.0978 52.0787 40.2591 51.9909 40.4073C51.9044 40.5569 51.7985 40.6921 51.6771 40.8144C51.5543 40.9379 51.42 41.0419 51.2715 41.1291C51.1229 41.2162 50.9615 41.2838 50.791 41.3319C50.6192 41.3787 50.441 41.4035 50.255 41.4035C50.069 41.4035 49.8907 41.38 49.7215 41.3319C49.5523 41.2838 49.3922 41.2162 49.2437 41.1278C49.0951 41.0393 48.9595 40.934 48.8381 40.8117C48.7167 40.6895 48.6121 40.5543 48.5255 40.4047C48.439 40.2552 48.3718 40.0952 48.3253 39.9235C48.2775 39.7519 48.2543 39.5724 48.2543 39.3852C48.2543 39.2005 48.2775 39.021 48.3253 38.8494C48.3718 38.6764 48.4403 38.5165 48.5281 38.3669C48.6159 38.2174 48.7205 38.0808 48.842 37.9573C48.9647 37.8337 49.099 37.7284 49.2488 37.6413C49.3973 37.5541 49.5575 37.4865 49.728 37.4371C49.8959 37.3877 50.0742 37.3643 50.2602 37.3643ZM48.7076 39.3826C48.7076 39.5997 48.7477 39.8026 48.8277 39.9925C48.9078 40.1823 49.0189 40.3475 49.1597 40.4892C49.3005 40.631 49.4658 40.7428 49.6531 40.8235C49.8417 40.9054 50.0432 40.9457 50.2589 40.9457C50.4707 40.9457 50.6709 40.9054 50.8595 40.8235C51.048 40.7428 51.2121 40.631 51.3503 40.4892C51.4898 40.3475 51.5996 40.181 51.6809 39.9925C51.7623 39.8026 51.8036 39.5997 51.8036 39.3826C51.8036 39.2395 51.7855 39.103 51.7481 38.9703C51.7119 38.8377 51.659 38.7141 51.5918 38.5984C51.5246 38.4826 51.4433 38.3786 51.3503 38.2837C51.2573 38.1887 51.1527 38.1081 51.0377 38.0405C50.9227 37.9729 50.8 37.9195 50.6683 37.8831C50.5366 37.8467 50.4009 37.8272 50.2589 37.8272C50.0432 37.8272 49.8417 37.8688 49.6531 37.9508C49.4645 38.0327 49.3005 38.1445 49.1597 38.285C49.0189 38.4254 48.9078 38.5906 48.8277 38.7791C48.7477 38.9677 48.7076 39.1693 48.7076 39.3826Z" fill="#2D4652"/>
<path d="M54.2088 41.3448C54.1248 41.3448 54.0835 41.3058 54.0835 41.2291V37.5345C54.0835 37.4994 54.0964 37.4708 54.1222 37.45C54.1481 37.4292 54.1778 37.4187 54.2088 37.4187H54.4245C54.4568 37.4187 54.4839 37.4279 54.5046 37.4461C54.5239 37.4643 54.5369 37.4903 54.5394 37.5215V40.5632L56.8979 37.4708C56.9238 37.4357 56.9573 37.4187 56.9974 37.4187H57.2893C57.3242 37.4187 57.3526 37.4305 57.3732 37.4526C57.3939 37.476 57.4055 37.5046 57.4055 37.5397V41.2291C57.4055 41.3071 57.3668 41.3448 57.2906 41.3448H57.0723C56.9922 41.3448 56.9522 41.3058 56.9522 41.2291V38.1288L54.5562 41.2954C54.5304 41.3292 54.4981 41.3461 54.4594 41.3461H54.2088V41.3448ZM55.9977 36.8856C56.0777 36.8531 56.1488 36.8075 56.2082 36.7503C56.2676 36.6931 56.3141 36.6294 56.349 36.5566C56.3839 36.4837 56.4007 36.407 56.4007 36.3277C56.4007 36.2887 56.3864 36.2613 56.358 36.247C56.3296 36.2327 56.2999 36.2249 56.2663 36.2249H56.1139C56.0713 36.2249 56.0442 36.2392 56.0312 36.2652C56.0183 36.2926 56.0119 36.3212 56.0119 36.3511C56.0119 36.4083 55.9886 36.4564 55.9395 36.4993C55.8905 36.5422 55.8272 36.5631 55.7497 36.5631C55.658 36.5631 55.5895 36.5396 55.5417 36.4915C55.4952 36.4434 55.4707 36.3888 55.4707 36.3277C55.4707 36.2991 55.4616 36.2757 55.4423 36.2548C55.4229 36.234 55.3971 36.2236 55.3661 36.2236H55.1904C55.162 36.2236 55.1387 36.2327 55.1181 36.2522C55.0974 36.2717 55.0871 36.2965 55.0871 36.3264C55.0871 36.4057 55.1039 36.4811 55.1362 36.5539C55.1697 36.6268 55.2162 36.6905 55.2744 36.7451C55.3325 36.801 55.4009 36.8452 55.481 36.8804C55.5598 36.9142 55.6451 36.9324 55.7381 36.935C55.8298 36.935 55.9163 36.9181 55.9977 36.8856Z" fill="#2D4652"/>
<path d="M62.6545 39.2499C62.7088 39.2499 62.7669 39.2421 62.8263 39.2252C62.8857 39.2083 62.949 39.181 63.011 39.142C63.0743 39.103 63.1376 39.0523 63.2009 38.9911C63.2642 38.93 63.3275 38.8533 63.3895 38.7636L63.6943 38.3214C63.7834 38.1914 63.8674 38.0704 63.9461 37.9599C64.0249 37.8493 64.1089 37.7544 64.198 37.6738C64.2858 37.5932 64.3853 37.5307 64.4938 37.4839C64.6023 37.4384 64.7314 37.4137 64.88 37.4098C64.911 37.4059 64.9368 37.4124 64.9549 37.4293C64.973 37.4462 64.982 37.4722 64.982 37.5073V37.7401C64.9781 37.7687 64.9691 37.7934 64.9523 37.8155C64.9355 37.8376 64.9123 37.848 64.8826 37.848C64.7844 37.8532 64.6746 37.8975 64.5532 37.982C64.4305 38.0652 64.3065 38.1953 64.1786 38.3695L63.8712 38.7922L63.8183 38.8689C63.7834 38.9183 63.7459 38.969 63.7072 39.0223C63.6684 39.0757 63.6323 39.1238 63.5974 39.168L65.3837 41.289L65.3811 41.2864L65.4173 41.3423H65.3889H64.8322C64.8025 41.3423 64.7728 41.3202 64.7431 41.276L63.2642 39.4931C63.1815 39.5451 63.0911 39.5867 62.9916 39.6206C62.8935 39.6544 62.7798 39.6778 62.6545 39.6895V41.2266C62.6545 41.2656 62.6442 41.2942 62.6235 41.3137C62.6029 41.3332 62.5732 41.3423 62.537 41.3423H62.3187C62.2399 41.3423 62.2012 41.3033 62.2012 41.2266V37.532C62.2012 37.4969 62.2115 37.4683 62.2322 37.4475C62.2515 37.4267 62.2813 37.4163 62.32 37.4163H62.5383C62.5732 37.4163 62.6016 37.4267 62.6235 37.4475C62.6455 37.4683 62.6558 37.4969 62.6558 37.532V39.2499H62.6545Z" fill="#2D4652"/>
<path d="M69.0298 37.3643C69.2132 37.3643 69.3915 37.3877 69.562 37.4358C69.7324 37.4839 69.8926 37.5515 70.0398 37.64C70.1884 37.7284 70.3227 37.8337 70.4454 37.956C70.5681 38.0782 70.6727 38.2147 70.7593 38.3656C70.8458 38.5165 70.913 38.6777 70.9621 38.8507C71.0111 39.0236 71.0344 39.2031 71.0344 39.3904C71.0344 39.575 71.0111 39.7545 70.9633 39.9261C70.9156 40.0978 70.8484 40.2591 70.7606 40.4073C70.674 40.5569 70.5681 40.6921 70.4467 40.8144C70.324 40.9379 70.1897 41.0419 70.0411 41.1291C69.8926 41.2162 69.7312 41.2838 69.5607 41.3319C69.3889 41.3787 69.2106 41.4035 69.0246 41.4035C68.8386 41.4035 68.6604 41.38 68.4912 41.3319C68.322 41.2851 68.1618 41.2162 68.0133 41.1278C67.8648 41.0393 67.7291 40.934 67.6077 40.8117C67.4863 40.6895 67.3817 40.5543 67.2952 40.4047C67.2086 40.2552 67.1415 40.0952 67.095 39.9235C67.0472 39.7519 67.0239 39.5724 67.0239 39.3852C67.0239 39.2005 67.0472 39.021 67.095 38.8494C67.1415 38.6764 67.2099 38.5165 67.2977 38.3669C67.3856 38.2174 67.4902 38.0808 67.6116 37.9573C67.7343 37.8337 67.8686 37.7284 68.0185 37.6413C68.167 37.5541 68.3272 37.4865 68.4977 37.4371C68.6656 37.3877 68.8438 37.3643 69.0298 37.3643ZM67.4773 39.3826C67.4773 39.5997 67.5173 39.8026 67.5974 39.9925C67.6775 40.1823 67.7886 40.3475 67.9293 40.4892C68.0701 40.631 68.2355 40.7428 68.4227 40.8235C68.6113 40.9054 68.8128 40.9457 69.0285 40.9457C69.2403 40.9457 69.4405 40.9054 69.6291 40.8235C69.8177 40.7428 69.9817 40.631 70.1199 40.4892C70.2594 40.3475 70.3692 40.181 70.4506 39.9925C70.532 39.8026 70.5733 39.5997 70.5733 39.3826C70.5733 39.2395 70.5552 39.103 70.5177 38.9703C70.4816 38.8377 70.4286 38.7141 70.3615 38.5984C70.2943 38.4826 70.2129 38.3786 70.1199 38.2837C70.0269 38.1887 69.9223 38.1081 69.8074 38.0405C69.6924 37.9729 69.5697 37.9195 69.438 37.8831C69.3062 37.8467 69.1706 37.8272 69.0285 37.8272C68.8128 37.8272 68.6113 37.8688 68.4227 37.9508C68.2342 38.0327 68.0701 38.1445 67.9293 38.285C67.7886 38.4254 67.6775 38.5906 67.5974 38.7791C67.5173 38.9677 67.4773 39.1693 67.4773 39.3826Z" fill="#2D4652"/>
<path d="M74.6911 41.1759C74.6472 41.1759 74.6123 41.1434 74.5852 41.0784L73.3788 38.22L73.0869 41.2306C73.0869 41.3086 73.0469 41.3463 72.9681 41.3463H72.7472C72.6685 41.3463 72.6284 41.3073 72.6284 41.2306C72.6917 40.6102 72.755 39.9938 72.8183 39.3826C72.8816 38.7714 72.9449 38.1563 73.0094 37.5347C73.0094 37.5009 73.0211 37.4736 73.0443 37.4515C73.0676 37.4293 73.0973 37.4189 73.1322 37.4189H73.4602C73.4899 37.4189 73.5145 37.4281 73.5325 37.4463C73.5506 37.4645 73.5661 37.4905 73.5752 37.5217L74.7919 40.4711C74.9972 39.9756 75.2013 39.4841 75.4028 38.9964C75.6056 38.5087 75.8071 38.0172 76.0112 37.5217C76.0202 37.4905 76.0344 37.4645 76.0538 37.4463C76.0732 37.4281 76.0964 37.4189 76.1248 37.4189H76.4632C76.4981 37.4189 76.5265 37.4307 76.5472 37.4528C76.5678 37.4762 76.5782 37.5035 76.5782 37.5347L76.9618 41.2293C76.9618 41.3073 76.923 41.345 76.8443 41.345H76.6234C76.5446 41.345 76.5046 41.306 76.5046 41.2293L76.2101 38.2187L75.0037 41.0771C74.9779 41.1421 74.9404 41.1746 74.8939 41.1746H74.6911V41.1759Z" fill="#2D4652"/>
<path d="M81.6077 37.4175C81.6645 37.4175 81.6917 37.4487 81.6917 37.5098V41.2395C81.6917 41.2681 81.68 41.2915 81.6568 41.3136C81.6335 41.3344 81.609 41.3448 81.5806 41.3448H81.352C81.3236 41.3448 81.2977 41.3331 81.2745 41.311C81.2512 41.2876 81.2396 41.2616 81.2396 41.2317V37.8752H79.3267V41.2317C79.3267 41.2616 79.3151 41.2889 79.2893 41.311C79.2647 41.3344 79.2402 41.3448 79.2131 41.3448H78.9819C78.956 41.3448 78.9302 41.3344 78.9069 41.3136C78.8837 41.2928 78.8721 41.2681 78.8721 41.2395V37.5098C78.8721 37.4487 78.9005 37.4175 78.956 37.4175H81.6077Z" fill="#2D4652"/>
<path d="M83.5182 41.3786C83.4846 41.3786 83.4588 41.3695 83.4407 41.3513C83.4226 41.3331 83.4136 41.3084 83.4136 41.2785V41.1017C83.4136 41.0665 83.4239 41.0392 83.4446 41.0197C83.4652 41.0002 83.4937 40.9911 83.5285 40.9911C83.5867 40.9911 83.6396 40.9768 83.6887 40.9482C83.7378 40.9196 83.7804 40.8819 83.8166 40.8351C83.8527 40.7895 83.8798 40.7388 83.9005 40.6842C83.9212 40.6296 83.9302 40.5763 83.9302 40.5256V37.5098C83.9302 37.4487 83.9599 37.4175 84.0168 37.4175H86.5522C86.5741 37.4175 86.5961 37.4253 86.6168 37.4409C86.6361 37.4565 86.6465 37.4786 86.6465 37.5046V41.2577C86.6465 41.3162 86.6155 41.3448 86.5522 41.3448H86.2784C86.2202 41.3448 86.1918 41.3162 86.1918 41.2577V37.8752H84.3849V40.5256C84.3849 40.6413 84.3603 40.7518 84.3125 40.8559C84.2647 40.9599 84.2002 41.0509 84.1201 41.1277C84.04 41.2044 83.947 41.2668 83.8424 41.311C83.7378 41.3565 83.6306 41.3786 83.5182 41.3786Z" fill="#2D4652"/>
<path d="M91.2782 37.4173C91.357 37.4173 91.3958 37.4589 91.3958 37.5409V37.7554C91.3958 37.7879 91.3854 37.8153 91.3648 37.84C91.3441 37.8647 91.3131 37.8777 91.2731 37.8777H89.0902V39.0468H90.8275C90.8585 39.0468 90.8856 39.0559 90.9088 39.0754C90.9321 39.0949 90.9437 39.1248 90.9437 39.1677V39.3849C90.9437 39.4161 90.9347 39.4447 90.9153 39.4694C90.8959 39.4941 90.8675 39.5058 90.8288 39.5058H89.0915V40.8843H91.2989C91.3777 40.8843 91.4165 40.9259 91.4165 41.0079V41.2276C91.4165 41.3057 91.3777 41.3434 91.3015 41.3434H88.7531C88.6756 41.3434 88.6382 41.3057 88.6382 41.2315V37.537C88.6382 37.4563 88.6769 37.416 88.7531 37.416H91.2782V37.4173Z" fill="#2D4652"/>
<path d="M93.6208 39.2499C93.6751 39.2499 93.7332 39.2421 93.7926 39.2252C93.852 39.2083 93.9153 39.181 93.9773 39.142C94.0406 39.103 94.1039 39.0523 94.1672 38.9911C94.2305 38.93 94.2938 38.8533 94.3558 38.7636L94.6606 38.3214C94.7497 38.1914 94.8337 38.0704 94.9125 37.9599C94.9912 37.8493 95.0752 37.7544 95.1643 37.6738C95.2521 37.5932 95.3516 37.5307 95.4601 37.4839C95.5686 37.4384 95.6978 37.4137 95.8463 37.4098C95.8773 37.4059 95.9031 37.4124 95.9212 37.4293C95.9393 37.4462 95.9483 37.4722 95.9483 37.5073V37.7401C95.9445 37.7687 95.9354 37.7934 95.9186 37.8155C95.9018 37.8376 95.8786 37.848 95.8489 37.848C95.7507 37.8532 95.6409 37.8975 95.5195 37.982C95.3968 38.0652 95.2728 38.1953 95.1449 38.3695L94.8375 38.7922L94.7846 38.8689C94.7497 38.9183 94.7123 38.969 94.6735 39.0223C94.6348 39.0757 94.5986 39.1238 94.5637 39.168L96.35 41.289L96.3474 41.2864L96.3836 41.3423H96.3552H95.7985C95.7688 41.3423 95.7391 41.3202 95.7094 41.276L94.2305 39.4931C94.1478 39.5451 94.0574 39.5867 93.958 39.6206C93.8598 39.6544 93.7461 39.6778 93.6208 39.6895V41.2266C93.6208 41.2656 93.6105 41.2942 93.5898 41.3137C93.5692 41.3332 93.5395 41.3423 93.5033 41.3423H93.285C93.2062 41.3423 93.1675 41.3033 93.1675 41.2266V37.532C93.1675 37.4969 93.1778 37.4683 93.1985 37.4475C93.2179 37.4267 93.2476 37.4163 93.2863 37.4163H93.5046C93.5395 37.4163 93.5679 37.4267 93.5898 37.4475C93.6118 37.4683 93.6221 37.4969 93.6221 37.532V39.2499H93.6208Z" fill="#2D4652"/>
<path d="M101.19 37.7606C101.209 37.7749 101.225 37.7892 101.239 37.8035C101.252 37.8178 101.258 37.8347 101.258 37.8529C101.258 37.8672 101.254 37.8828 101.247 37.8997C101.239 37.9166 101.23 37.9309 101.222 37.9439L101.111 38.1182C101.083 38.1585 101.053 38.1793 101.022 38.1793C101.009 38.178 100.996 38.1741 100.979 38.1676C100.962 38.1611 100.946 38.1507 100.926 38.1364C100.795 38.0415 100.65 37.966 100.491 37.9114C100.332 37.8568 100.172 37.8295 100.009 37.8295C99.7793 37.8295 99.57 37.8711 99.3776 37.9556C99.1851 38.0402 99.0211 38.1546 98.8829 38.299C98.7447 38.4433 98.6362 38.6085 98.56 38.797C98.4825 38.9856 98.4451 39.1846 98.4451 39.3926C98.4451 39.6111 98.4877 39.8153 98.5742 40.0051C98.6595 40.195 98.7744 40.3589 98.9178 40.498C99.0612 40.6372 99.2265 40.7464 99.4138 40.8257C99.6011 40.9051 99.7961 40.9441 99.9989 40.9441C100.067 40.9441 100.134 40.9402 100.2 40.9324C100.266 40.9246 100.332 40.9103 100.399 40.8907C100.465 40.8712 100.535 40.8452 100.606 40.814C100.677 40.7828 100.751 40.7425 100.828 40.6957C100.844 40.6892 100.86 40.6788 100.88 40.6645C100.898 40.6515 100.916 40.6385 100.933 40.6242C100.949 40.6112 100.965 40.6007 100.982 40.5916C100.997 40.5825 101.01 40.5786 101.021 40.5786C101.054 40.5786 101.084 40.6007 101.11 40.645L101.23 40.8465C101.241 40.8699 101.248 40.8933 101.248 40.9207C101.248 40.9584 101.228 40.9883 101.187 41.0104C101.021 41.1313 100.838 41.2276 100.638 41.2965C100.438 41.3667 100.224 41.4005 99.9924 41.4005C99.8064 41.4005 99.6282 41.3771 99.459 41.329C99.2898 41.2822 99.1296 41.2133 98.9811 41.1248C98.8325 41.0364 98.6969 40.9311 98.5755 40.8088C98.4541 40.6866 98.3495 40.5513 98.2629 40.4018C98.1764 40.2522 98.1092 40.0923 98.0627 39.9206C98.0149 39.749 97.9917 39.5695 97.9917 39.3822C97.9917 39.1976 98.0149 39.0181 98.0627 38.8464C98.1092 38.6735 98.1777 38.5135 98.2655 38.364C98.3534 38.2144 98.458 38.0779 98.5794 37.9543C98.7021 37.8308 98.8364 37.7255 98.9862 37.6383C99.1348 37.5512 99.2949 37.4836 99.4654 37.4342C99.6359 37.386 99.8142 37.3613 100 37.3613C100.221 37.3613 100.432 37.3951 100.632 37.4641C100.829 37.5356 101.015 37.6331 101.19 37.7606Z" fill="#2D4652"/>
<path d="M54.2349 16.1736C53.624 16.1281 53.1603 16.5156 53.0789 16.881L52.6992 31.4395C52.6618 32.0143 52.8413 32.2783 53.1978 32.3056C53.5659 32.333 53.7661 32.0976 53.8035 31.5228L55.2889 17.0488C55.2372 16.5988 54.8459 16.2204 54.2349 16.1736Z" fill="#2D4652" stroke="#2D4652" stroke-width="0.387941" stroke-miterlimit="10"/>
<path d="M54.648 5.41082C54.6364 5.40952 54.6248 5.41082 54.6144 5.40952C48.3643 4.95176 42.7419 8.52279 39.9985 14.0393C40.8355 13.9027 41.697 13.852 42.5792 13.9184C43.0377 13.9535 43.4859 14.0211 43.9263 14.1108C45.4944 14.4307 46.9423 15.0823 48.208 15.9913C48.2145 15.9887 48.2197 15.9861 48.2261 15.9835C49.2801 8.01041 53.8524 5.77104 54.71 5.41862C54.6881 5.41602 54.6687 5.41212 54.648 5.41082Z" fill="url(#paint0_linear_130_3387)"/>
<path d="M54.758 5.41862C54.7373 5.41732 54.7179 5.41732 54.6973 5.41602C55.5019 5.89458 59.7436 8.79978 59.7681 16.8535C59.7733 16.8574 59.7798 16.8613 59.7849 16.8639C61.5389 15.9549 63.5332 15.4997 65.6243 15.6571C66.5052 15.7234 67.3525 15.9041 68.1636 16.1655C66.1487 10.2823 61.0223 5.89198 54.758 5.41862Z" fill="url(#paint1_linear_130_3387)"/>
<path d="M54.7085 5.42366L54.6969 5.42236C53.8147 5.78779 49.2747 8.03887 48.2246 15.982C49.9747 15.0782 51.9613 14.6256 54.0459 14.7843C54.0627 14.7856 54.1389 14.7908 54.1557 14.7921C56.2404 14.9495 58.1494 15.6959 59.7678 16.8546C59.7432 8.82954 55.5351 5.91783 54.7085 5.42366Z" fill="url(#paint2_linear_130_3387)"/>
<path d="M54.6635 6.02726C54.8715 6.04287 55.0562 5.99475 55.1608 5.90892C55.228 5.853 55.246 5.75156 55.2228 5.66443L55.0187 4.90367C54.9593 4.71771 54.9348 4.64748 54.7526 4.63448C54.5641 4.62017 54.5176 4.6982 54.4556 4.86206L54.1559 5.58511C54.121 5.66834 54.1262 5.77107 54.1869 5.83739C54.2786 5.93623 54.4569 6.01165 54.6635 6.02726Z" fill="#2D4652"/>
<path d="M54.6943 8.15348C53.6675 8.15348 52.8267 7.30688 52.8267 6.27303C52.8267 5.23917 53.6675 4.39258 54.6943 4.39258C55.7212 4.39258 56.562 5.23917 56.562 6.27303C56.562 7.30688 55.7212 8.15348 54.6943 8.15348Z" stroke="#2D4652" stroke-width="1.1638" stroke-miterlimit="10"/>
<path d="M54.0098 16.2721C52.9829 16.2721 52.1421 15.4255 52.1421 14.3917C52.1421 13.3578 52.9829 12.5112 54.0098 12.5112C55.0366 12.5112 55.8774 13.3578 55.8774 14.3917C55.8787 15.4255 55.0379 16.2721 54.0098 16.2721Z" stroke="#2D4652" stroke-width="1.1638" stroke-miterlimit="10"/>
<path d="M48.5747 16.8849C47.5479 16.8849 46.707 16.0383 46.707 15.0045C46.707 13.9706 47.5479 13.124 48.5747 13.124C49.6015 13.124 50.4424 13.9706 50.4424 15.0045C50.4424 16.0383 49.6015 16.8849 48.5747 16.8849Z" stroke="#2D4652" stroke-width="1.1638" stroke-miterlimit="10"/>
<path d="M59.2344 17.7975C58.2075 17.7975 57.3667 16.9509 57.3667 15.9171C57.3667 14.8832 58.2075 14.0366 59.2344 14.0366C60.2612 14.0366 61.1021 14.8832 61.1021 15.9171C61.1021 16.9509 60.2612 17.7975 59.2344 17.7975Z" stroke="#2D4652" stroke-width="1.1638" stroke-miterlimit="10"/>
<path d="M57.8228 12.571C56.7959 12.571 55.9551 11.7244 55.9551 10.6905C55.9551 9.65665 56.7959 8.81006 57.8228 8.81006C58.8496 8.81006 59.6904 9.65665 59.6904 10.6905C59.6904 11.7244 58.8496 12.571 57.8228 12.571Z" stroke="#2D4652" stroke-width="1.1638" stroke-miterlimit="10"/>
<path d="M50.8712 11.8703C49.8444 11.8703 49.0035 11.0237 49.0035 9.98982C49.0035 8.95597 49.8444 8.10938 50.8712 8.10938C51.898 8.10938 52.7389 8.95597 52.7389 9.98982C52.7402 11.025 51.8993 11.8703 50.8712 11.8703Z" stroke="#2D4652" stroke-width="1.1638" stroke-miterlimit="10"/>
<defs>
<linearGradient id="paint0_linear_130_3387" x1="45.5533" y1="8.41661" x2="51.0419" y2="12.3644" gradientUnits="userSpaceOnUse">
<stop stop-color="#EA7181"/>
<stop offset="0.6654" stop-color="#E4234C"/>
<stop offset="1" stop-color="#E10035"/>
</linearGradient>
<linearGradient id="paint1_linear_130_3387" x1="54.3143" y1="10.9353" x2="68.4574" y2="11.9153" gradientUnits="userSpaceOnUse">
<stop stop-color="#FFEC00"/>
<stop offset="1" stop-color="#E65113"/>
</linearGradient>
<linearGradient id="paint2_linear_130_3387" x1="48.6009" y1="10.5332" x2="60.1494" y2="11.3334" gradientUnits="userSpaceOnUse">
<stop stop-color="#3BB9D0"/>
<stop offset="0.2383" stop-color="#39B6CE"/>
<stop offset="0.4201" stop-color="#34ACC7"/>
<stop offset="0.5831" stop-color="#2C9CBB"/>
<stop offset="0.7352" stop-color="#2085AA"/>
<stop offset="0.8783" stop-color="#106794"/>
<stop offset="1" stop-color="#00487D"/>
</linearGradient>
</defs>
</svg>
